HIERARCHY
ROOT Hips
{
	OFFSET 53.215900 7.509991 58.287899
	CHANNELS 6 Xposition Yposition Zposition Xrotation Yrotation Zrotation
	JOINT spine
	{
		OFFSET 0.000000 -0.393701 6.846371
		CHANNELS 3 Xrotation Yrotation Zrotation
		JOINT spine1
		{
			OFFSET 0.000000 -0.000001 9.496208
			CHANNELS 3 Xrotation Yrotation Zrotation
			JOINT spine2
			{
				OFFSET 0.000000 -0.000002 9.099091
				CHANNELS 3 Xrotation Yrotation Zrotation
				JOINT Neck
				{
					OFFSET 0.000000 -1.113784 23.361198
					CHANNELS 3 Xrotation Yrotation Zrotation
					JOINT Head
					{
						OFFSET 0.000000 -0.000001 7.058022
						CHANNELS 3 Xrotation Yrotation Zrotation
						End Site
						{
							OFFSET 0.000000 5.634188 17.084396
						}
					}
				}
				JOINT RightShoulder
				{
					OFFSET -3.831360 0.533490 9.826309
					CHANNELS 3 Xrotation Yrotation Zrotation
					JOINT RightArm
					{
						OFFSET 0.000000 -0.000002 12.888100
						CHANNELS 3 Xrotation Yrotation Zrotation
						JOINT RightArmRoll
						{
							OFFSET 0.000000 -0.000001 6.506172
							CHANNELS 3 Xrotation Yrotation Zrotation
							JOINT RightForeArm
							{
								OFFSET 0.000000 -0.000003 18.950104
								CHANNELS 3 Xrotation Yrotation Zrotation
								JOINT RightForeArmRoll
								{
									OFFSET 0.000000 -0.000001 7.300934
									CHANNELS 3 Xrotation Yrotation Zrotation
									JOINT RightHand
									{
										OFFSET 0.000000 -0.000002 14.651398
										CHANNELS 3 Xrotation Yrotation Zrotation
										End Site
										{
											OFFSET 0.000000 0.000000 0.100006
										}
									}
								}
							}
						}
					}
				}
				JOINT LeftShoulder
				{
					OFFSET 3.831360 0.533490 9.826309
					CHANNELS 3 Xrotation Yrotation Zrotation
					JOINT LeftArm
					{
						OFFSET 0.000000 -0.000002 12.888100
						CHANNELS 3 Xrotation Yrotation Zrotation
						JOINT LeftArmRoll
						{
							OFFSET 0.000000 -0.000001 6.506172
							CHANNELS 3 Xrotation Yrotation Zrotation
							JOINT LeftForeArm
							{
								OFFSET 0.000000 -0.000003 18.950104
								CHANNELS 3 Xrotation Yrotation Zrotation
								JOINT LeftForeArmRoll
								{
									OFFSET 0.000000 -0.000001 7.300919
									CHANNELS 3 Xrotation Yrotation Zrotation
									JOINT LeftHand
									{
										OFFSET 0.000000 -0.000002 14.651398
										CHANNELS 3 Xrotation Yrotation Zrotation
										End Site
										{
											OFFSET 0.000000 0.000000 0.100006
										}
									}
								}
							}
						}
					}
				}
			}
		}
	}
	JOINT RightUpLeg
	{
		OFFSET -6.068371 0.933477 -1.112782
		CHANNELS 3 Xrotation Yrotation Zrotation
		JOINT RightUpLegRoll
		{
			OFFSET 0.000000 -0.000003 17.179604
			CHANNELS 3 Xrotation Yrotation Zrotation
			JOINT RightLeg
			{
				OFFSET 0.000000 0.000004 -21.274300
				CHANNELS 3 Xrotation Yrotation Zrotation
				JOINT RightLegRoll
				{
					OFFSET 0.000000 -0.000004 21.343903
					CHANNELS 3 Xrotation Yrotation Zrotation
					JOINT RightFoot
					{
						OFFSET 0.000000 -0.000003 17.765198
						CHANNELS 3 Xrotation Yrotation Zrotation
						JOINT RightToeBase
						{
							OFFSET 0.000000 -0.000002 14.850800
							CHANNELS 3 Xrotation Yrotation Zrotation
							End Site
							{
								OFFSET 0.006294 0.829002 7.192139
							}
						}
					}
				}
			}
		}
	}
	JOINT LeftUpLeg
	{
		OFFSET 6.068371 0.933477 -1.112782
		CHANNELS 3 Xrotation Yrotation Zrotation
		JOINT LeftUpLegRoll
		{
			OFFSET 0.000000 -0.000003 17.179703
			CHANNELS 3 Xrotation Yrotation Zrotation
			JOINT LeftLeg
			{
				OFFSET 0.000000 -0.000003 21.274200
				CHANNELS 3 Xrotation Yrotation Zrotation
				JOINT LeftLegRoll
				{
					OFFSET 0.000000 -0.000004 21.541199
					CHANNELS 3 Xrotation Yrotation Zrotation
					JOINT LeftFoot
					{
						OFFSET 0.000000 -0.000003 17.567894
						CHANNELS 3 Xrotation Yrotation Zrotation
						JOINT LeftToeBase
						{
							OFFSET 0.000000 -0.000003 14.850800
							CHANNELS 3 Xrotation Yrotation Zrotation
							End Site
							{
								OFFSET -0.028210 0.829004 7.192123
							}
						}
					}
				}
			}
		}
	}
}
MOTION
Frames: 4
Frame Time: 0.041667
52.883095 -38.449707 91.320610 -2.033492 2.432820 -3.888657 -2.425984 -0.687398 0.794708 -0.839518 -1.400380 1.567032 0.805496 -1.381504 1.583692 45.745346 4.347426 -0.679199 -1.716184 2.430491 0.044056 24.724795 -69.125114 25.995119 -47.184473 -102.318577 -44.804709 0.000003 -0.000000 -0.000004 17.819793 -17.603354 2.305705 -0.000002 0.000013 -3.000002 -5.000212 -7.999003 0.000170 14.002579 68.013999 -14.510670 -48.145071 109.934879 32.425958 0.000005 0.000035 0.000002 0.146412 18.548248 1.273268 -0.000006 0.000026 3.128761 -5.000226 7.999081 -0.000137 -2.542103 179.636352 -1.753836 -179.999991 0.000005 -1.050997 173.371812 -1.367802 -0.342927 0.000002 -0.000001 0.024592 67.846052 6.954038 2.038635 25.456947 -7.355615 0.000011 -1.123894 169.675942 -3.818034 -0.000004 -0.000005 -1.103190 -11.664513 2.656828 0.601216 -0.000005 -0.000007 -0.213543 71.167074 -6.897870 -1.966318 25.456953 7.355614 -0.000001 
52.947094 -38.375816 91.322311 -2.077688 2.416322 -3.861356 -2.408802 -0.686308 0.791824 -0.805216 -1.397902 1.561515 0.839799 -1.379102 1.578144 45.875403 4.408422 -0.689267 -1.643119 2.433590 0.049652 24.658161 -69.068171 25.936482 -46.789695 -102.355248 -44.326077 0.000002 0.000001 -0.000004 17.714828 -17.567098 2.279588 -0.000003 0.000013 -3.000000 -5.000214 -7.999004 0.000168 13.995364 68.030153 -14.499655 -47.863917 109.853143 32.150595 0.000004 0.000034 0.000002 0.146432 18.546148 1.217778 -0.000006 0.000026 3.123530 -5.000224 7.999082 -0.000137 -2.503347 179.658332 -1.733092 -179.999991 0.000005 -1.051994 173.368165 -1.376734 -0.343056 0.000001 -0.000001 0.024592 67.843115 6.954044 2.039322 25.456952 -7.355615 0.000011 -1.079512 169.697785 -3.808655 -0.000004 -0.000004 -1.103930 -11.645605 2.647497 0.599853 -0.000005 -0.000007 -0.213646 71.159240 -6.898102 -1.966140 25.456955 7.355614 -0.000002 
52.925991 -38.385109 91.327606 -2.122143 2.400445 -3.835328 -2.391651 -0.685362 0.789099 -0.770961 -1.395755 1.556299 0.874056 -1.377011 1.572896 46.004036 4.469186 -0.699408 -1.568554 2.437298 0.055399 24.589832 -69.011084 25.875989 -46.394460 -102.392459 -43.847052 0.000002 0.000001 -0.000003 17.609437 -17.531257 2.253707 -0.000001 0.000013 -3.000000 -5.000215 -7.999001 0.000168 13.989697 68.046695 -14.490289 -47.577219 109.769323 31.870858 0.000004 0.000034 0.000002 0.146459 18.545548 1.161281 -0.000006 0.000026 3.118201 -5.000222 7.999082 -0.000137 -2.464422 179.678303 -1.712785 -179.999991 0.000005 -1.053005 173.364435 -1.385665 -0.343189 0.000001 -0.000001 0.024592 67.840273 6.954023 2.039995 25.456945 -7.355615 0.000010 -1.034550 169.718658 -3.799980 -0.000005 -0.000004 -1.104630 -11.627098 2.638406 0.598549 -0.000005 -0.000007 -0.213764 71.151747 -6.898325 -1.965842 25.456959 7.355613 -0.000001 
52.901096 -38.397102 91.327209 -2.166776 2.384976 -3.810200 -2.374517 -0.684515 0.786486 -0.736738 -1.393815 1.551298 0.908280 -1.375138 1.567879 46.131770 4.529769 -0.709664 -1.492945 2.441442 0.061247 24.520265 -68.953779 25.814154 -45.999798 -102.430161 -43.368723 0.000002 0.000001 -0.000003 17.503601 -17.495649 2.227957 -0.000001 0.000014 -3.000002 -5.000216 -7.999002 0.000167 13.985027 68.063347 -14.481984 -47.284433 109.684676 31.585766 0.000002 0.000034 0.000002 0.146495 18.546045 1.104078 -0.000005 0.000025 3.112801 -5.000222 7.999084 -0.000137 -2.425392 179.698275 -1.692841 -179.999991 0.000005 -1.054003 173.360638 -1.394583 -0.344319 0.000002 -0.000001 0.024592 67.837330 6.954028 2.040683 25.456948 -7.355614 0.000010 -0.989184 169.738493 -3.791777 -0.000005 -0.000005 -1.105290 -11.608795 2.629490 0.597284 -0.000005 -0.000007 -0.213893 71.144459 -6.898546 -1.965630 25.456962 7.355613 -0.000002 
